<mxfile host="app.diagrams.net" modified="2023-04-07T12:31:21.268Z" agent="Mozilla/5.0 (Macintosh; Intel Mac OS X 10_15_7) AppleWebKit/537.36 (KHTML, like Gecko) Chrome/111.0.0.0 Safari/537.36" etag="-TJCyjAaqnR0WXt6QAQQ" version="21.1.2" type="device">
  <diagram name="PÃ¡gina-1" id="iWpoZM2BxbS8ONGCOGch">
    <mxGraphModel dx="954" dy="648" grid="1" gridSize="10" guides="1" tooltips="1" connect="1" arrows="1" fold="1" page="1" pageScale="1" pageWidth="827" pageHeight="1169" math="0" shadow="0">
      <root>
        <mxCell id="0" />
        <mxCell id="1" parent="0" />
        <mxCell id="vGtt1iqXlC9HfNqBAAFR-34" value="" style="rounded=0;whiteSpace=wrap;html=1;" vertex="1" parent="1">
          <mxGeometry x="325" y="53" width="440" height="260" as="geometry" />
        </mxCell>
        <mxCell id="vGtt1iqXlC9HfNqBAAFR-31" value="" style="rounded=0;whiteSpace=wrap;html=1;" vertex="1" parent="1">
          <mxGeometry x="670" y="106" width="80" height="194" as="geometry" />
        </mxCell>
        <mxCell id="vGtt1iqXlC9HfNqBAAFR-27" value="" style="rounded=0;whiteSpace=wrap;html=1;" vertex="1" parent="1">
          <mxGeometry x="510" y="106" width="140" height="194" as="geometry" />
        </mxCell>
        <mxCell id="vGtt1iqXlC9HfNqBAAFR-2" value="" style="shape=image;verticalLabelPosition=bottom;labelBackgroundColor=default;verticalAlign=top;aspect=fixed;imageAspect=0;image=https://cursosdedesarrollo.com/wp-content/uploads/2022/01/logo-npm.png;" vertex="1" parent="1">
          <mxGeometry x="349.5" y="210.66" width="91.2" height="31.39" as="geometry" />
        </mxCell>
        <mxCell id="vGtt1iqXlC9HfNqBAAFR-3" value="" style="shadow=0;dashed=0;html=1;labelPosition=center;verticalLabelPosition=bottom;verticalAlign=top;align=center;outlineConnect=0;shape=mxgraph.veeam.3d.proxy_appliance;" vertex="1" parent="1">
          <mxGeometry x="370.1" y="160" width="46" height="46" as="geometry" />
        </mxCell>
        <mxCell id="vGtt1iqXlC9HfNqBAAFR-14" style="edgeStyle=none;rounded=0;orthogonalLoop=1;jettySize=auto;html=1;exitX=0;exitY=0.5;exitDx=0;exitDy=0;endArrow=none;endFill=0;startArrow=classic;startFill=1;" edge="1" parent="1" source="vGtt1iqXlC9HfNqBAAFR-4" target="vGtt1iqXlC9HfNqBAAFR-3">
          <mxGeometry relative="1" as="geometry" />
        </mxCell>
        <mxCell id="vGtt1iqXlC9HfNqBAAFR-4" value="" style="editableCssRules=.*;html=1;shape=image;verticalLabelPosition=bottom;labelBackgroundColor=#ffffff;verticalAlign=top;aspect=fixed;imageAspect=0;image=data:image/svg+xml,PHN2ZyB4bWxucz0iaHR0cDovL3d3dy53My5vcmcvMjAwMC9zdmciIHhtbG5zOnY9Imh0dHBzOi8vdmVjdGEuaW8vbmFubyIgd2lkdGg9IjE0LjAwMDI5OTQ1MzczNTM1MiIgaGVpZ2h0PSIxNS45OTI5MjI3ODI4OTc5NSIgdmlld0JveD0iLTAuMDAwMTQ5NjA4NDAwNTMzOTA3MTIgLTAuMDAwNDYxNzIyMDgzODU1NDIwMzUgMTQuMDAwMjk5NDUzNzM1MzUyIDE1Ljk5MjkyMjc4Mjg5Nzk1Ij4mI3hhOwk8c3R5bGUgdHlwZT0idGV4dC9jc3MiPiYjeGE7CS5zdDB7ZmlsbDojNDI4NWY0O30mI3hhOwk8L3N0eWxlPiYjeGE7CTxwYXRoIGNsYXNzPSJzdDAiIGQ9Ik0xMy42NyAzLjczNkw3LjM2LjA5NmEuNzIuNzIgMCAwIDAtLjcyIDBMLjMzIDMuNzM2YS43Mi43MiAwIDAgMC0uMzMuNjJ2Ny4yOGEuNzIuNzIgMCAwIDAgLjM2LjYybDYuMjggMy42NGEuNzIuNzIgMCAwIDAgLjcyIDBsNi4zMS0zLjY0YS43Mi43MiAwIDAgMCAuMzMtLjYydi03LjI4YS43Mi43MiAwIDAgMC0uMzMtLjYyem0tLjg3IDcuMmwtMi4yLTEuMjd2LTMuMzRsLTMuMjUgMS44N3YzLjhsMi45LTEuNjcgMi4yIDEuMjctNS40NSAzLjEtNS40NS0zLjE1IDIuMi0xLjI3IDIuOSAxLjcydi0zLjhMMy40IDYuMzI2djMuMzRsLTIuMiAxLjI3di02LjI5bDUuNDUtMy4xNHYyLjQ5bC0yLjkgMS43Mkw3IDcuNTg2bDMuMjUtMS44OC0yLjktMS43MXYtMi40OWw1LjQ1IDMuMTR6Ii8+JiN4YTs8L3N2Zz4=;" vertex="1" parent="1">
          <mxGeometry x="537" y="120" width="28.000000000000004" height="32" as="geometry" />
        </mxCell>
        <mxCell id="vGtt1iqXlC9HfNqBAAFR-15" style="edgeStyle=none;rounded=0;orthogonalLoop=1;jettySize=auto;html=1;exitX=0;exitY=0.5;exitDx=0;exitDy=0;endArrow=none;endFill=0;startArrow=classic;startFill=1;" edge="1" parent="1" source="vGtt1iqXlC9HfNqBAAFR-5" target="vGtt1iqXlC9HfNqBAAFR-3">
          <mxGeometry relative="1" as="geometry" />
        </mxCell>
        <mxCell id="vGtt1iqXlC9HfNqBAAFR-5" value="" style="editableCssRules=.*;html=1;shape=image;verticalLabelPosition=bottom;labelBackgroundColor=#ffffff;verticalAlign=top;aspect=fixed;imageAspect=0;image=data:image/svg+xml,PHN2ZyB4bWxucz0iaHR0cDovL3d3dy53My5vcmcvMjAwMC9zdmciIHhtbG5zOnY9Imh0dHBzOi8vdmVjdGEuaW8vbmFubyIgd2lkdGg9IjE0LjAwMDI5OTQ1MzczNTM1MiIgaGVpZ2h0PSIxNS45OTI5MjI3ODI4OTc5NSIgdmlld0JveD0iLTAuMDAwMTQ5NjA4NDAwNTMzOTA3MTIgLTAuMDAwNDYxNzIyMDgzODU1NDIwMzUgMTQuMDAwMjk5NDUzNzM1MzUyIDE1Ljk5MjkyMjc4Mjg5Nzk1Ij4mI3hhOwk8c3R5bGUgdHlwZT0idGV4dC9jc3MiPiYjeGE7CS5zdDB7ZmlsbDojNDI4NWY0O30mI3hhOwk8L3N0eWxlPiYjeGE7CTxwYXRoIGNsYXNzPSJzdDAiIGQ9Ik0xMy42NyAzLjczNkw3LjM2LjA5NmEuNzIuNzIgMCAwIDAtLjcyIDBMLjMzIDMuNzM2YS43Mi43MiAwIDAgMC0uMzMuNjJ2Ny4yOGEuNzIuNzIgMCAwIDAgLjM2LjYybDYuMjggMy42NGEuNzIuNzIgMCAwIDAgLjcyIDBsNi4zMS0zLjY0YS43Mi43MiAwIDAgMCAuMzMtLjYydi03LjI4YS43Mi43MiAwIDAgMC0uMzMtLjYyem0tLjg3IDcuMmwtMi4yLTEuMjd2LTMuMzRsLTMuMjUgMS44N3YzLjhsMi45LTEuNjcgMi4yIDEuMjctNS40NSAzLjEtNS40NS0zLjE1IDIuMi0xLjI3IDIuOSAxLjcydi0zLjhMMy40IDYuMzI2djMuMzRsLTIuMiAxLjI3di02LjI5bDUuNDUtMy4xNHYyLjQ5bC0yLjkgMS43Mkw3IDcuNTg2bDMuMjUtMS44OC0yLjktMS43MXYtMi40OWw1LjQ1IDMuMTR6Ii8+JiN4YTs8L3N2Zz4=;" vertex="1" parent="1">
          <mxGeometry x="537" y="160" width="28.000000000000004" height="32" as="geometry" />
        </mxCell>
        <mxCell id="vGtt1iqXlC9HfNqBAAFR-16" style="edgeStyle=none;rounded=0;orthogonalLoop=1;jettySize=auto;html=1;exitX=0;exitY=0.25;exitDx=0;exitDy=0;endArrow=none;endFill=0;startArrow=classic;startFill=1;" edge="1" parent="1" source="vGtt1iqXlC9HfNqBAAFR-6">
          <mxGeometry relative="1" as="geometry">
            <mxPoint x="415" y="190" as="targetPoint" />
          </mxGeometry>
        </mxCell>
        <mxCell id="vGtt1iqXlC9HfNqBAAFR-6" value="" style="editableCssRules=.*;html=1;shape=image;verticalLabelPosition=bottom;labelBackgroundColor=#ffffff;verticalAlign=top;aspect=fixed;imageAspect=0;image=data:image/svg+xml,PHN2ZyB4bWxucz0iaHR0cDovL3d3dy53My5vcmcvMjAwMC9zdmciIHhtbG5zOnY9Imh0dHBzOi8vdmVjdGEuaW8vbmFubyIgd2lkdGg9IjE0LjAwMDI5OTQ1MzczNTM1MiIgaGVpZ2h0PSIxNS45OTI5MjI3ODI4OTc5NSIgdmlld0JveD0iLTAuMDAwMTQ5NjA4NDAwNTMzOTA3MTIgLTAuMDAwNDYxNzIyMDgzODU1NDIwMzUgMTQuMDAwMjk5NDUzNzM1MzUyIDE1Ljk5MjkyMjc4Mjg5Nzk1Ij4mI3hhOwk8c3R5bGUgdHlwZT0idGV4dC9jc3MiPiYjeGE7CS5zdDB7ZmlsbDojNDI4NWY0O30mI3hhOwk8L3N0eWxlPiYjeGE7CTxwYXRoIGNsYXNzPSJzdDAiIGQ9Ik0xMy42NyAzLjczNkw3LjM2LjA5NmEuNzIuNzIgMCAwIDAtLjcyIDBMLjMzIDMuNzM2YS43Mi43MiAwIDAgMC0uMzMuNjJ2Ny4yOGEuNzIuNzIgMCAwIDAgLjM2LjYybDYuMjggMy42NGEuNzIuNzIgMCAwIDAgLjcyIDBsNi4zMS0zLjY0YS43Mi43MiAwIDAgMCAuMzMtLjYydi03LjI4YS43Mi43MiAwIDAgMC0uMzMtLjYyem0tLjg3IDcuMmwtMi4yLTEuMjd2LTMuMzRsLTMuMjUgMS44N3YzLjhsMi45LTEuNjcgMi4yIDEuMjctNS40NSAzLjEtNS40NS0zLjE1IDIuMi0xLjI3IDIuOSAxLjcydi0zLjhMMy40IDYuMzI2djMuMzRsLTIuMiAxLjI3di02LjI5bDUuNDUtMy4xNHYyLjQ5bC0yLjkgMS43Mkw3IDcuNTg2bDMuMjUtMS44OC0yLjktMS43MXYtMi40OWw1LjQ1IDMuMTR6Ii8+JiN4YTs8L3N2Zz4=;" vertex="1" parent="1">
          <mxGeometry x="537" y="250" width="28.000000000000004" height="32" as="geometry" />
        </mxCell>
        <mxCell id="vGtt1iqXlC9HfNqBAAFR-7" value=".&lt;br&gt;.&lt;br&gt;." style="text;html=1;align=center;verticalAlign=middle;resizable=0;points=[];autosize=1;strokeColor=none;fillColor=none;" vertex="1" parent="1">
          <mxGeometry x="535" y="190" width="30" height="60" as="geometry" />
        </mxCell>
        <mxCell id="vGtt1iqXlC9HfNqBAAFR-8" value="service 1" style="text;html=1;align=center;verticalAlign=middle;resizable=0;points=[];autosize=1;strokeColor=none;fillColor=none;" vertex="1" parent="1">
          <mxGeometry x="565" y="120" width="70" height="30" as="geometry" />
        </mxCell>
        <mxCell id="vGtt1iqXlC9HfNqBAAFR-9" value="service 2" style="text;html=1;align=center;verticalAlign=middle;resizable=0;points=[];autosize=1;strokeColor=none;fillColor=none;" vertex="1" parent="1">
          <mxGeometry x="565" y="160" width="70" height="30" as="geometry" />
        </mxCell>
        <mxCell id="vGtt1iqXlC9HfNqBAAFR-10" value="service n" style="text;html=1;align=center;verticalAlign=middle;resizable=0;points=[];autosize=1;strokeColor=none;fillColor=none;" vertex="1" parent="1">
          <mxGeometry x="565" y="250" width="70" height="30" as="geometry" />
        </mxCell>
        <mxCell id="vGtt1iqXlC9HfNqBAAFR-11" value="" style="image;sketch=0;aspect=fixed;html=1;points=[];align=center;fontSize=12;image=img/lib/mscae/Docker.svg;" vertex="1" parent="1">
          <mxGeometry x="525" y="140" width="24.39" height="20" as="geometry" />
        </mxCell>
        <mxCell id="vGtt1iqXlC9HfNqBAAFR-12" value="" style="image;sketch=0;aspect=fixed;html=1;points=[];align=center;fontSize=12;image=img/lib/mscae/Docker.svg;" vertex="1" parent="1">
          <mxGeometry x="525" y="180" width="24.39" height="20" as="geometry" />
        </mxCell>
        <mxCell id="vGtt1iqXlC9HfNqBAAFR-13" value="" style="image;sketch=0;aspect=fixed;html=1;points=[];align=center;fontSize=12;image=img/lib/mscae/Docker.svg;" vertex="1" parent="1">
          <mxGeometry x="525" y="270" width="24.39" height="20" as="geometry" />
        </mxCell>
        <mxCell id="vGtt1iqXlC9HfNqBAAFR-21" style="edgeStyle=none;rounded=0;orthogonalLoop=1;jettySize=auto;html=1;exitX=0.5;exitY=1;exitDx=0;exitDy=0;startArrow=classic;startFill=1;" edge="1" parent="1" source="vGtt1iqXlC9HfNqBAAFR-20" target="vGtt1iqXlC9HfNqBAAFR-3">
          <mxGeometry relative="1" as="geometry" />
        </mxCell>
        <mxCell id="vGtt1iqXlC9HfNqBAAFR-20" value="" style="shape=image;verticalLabelPosition=bottom;labelBackgroundColor=default;verticalAlign=top;aspect=fixed;imageAspect=0;image=https://marketplace-assets.digitalocean.com/logos/goauthentikio-authentik.png;" vertex="1" parent="1">
          <mxGeometry x="370.1" y="60" width="50" height="50" as="geometry" />
        </mxCell>
        <mxCell id="vGtt1iqXlC9HfNqBAAFR-22" value="Authentication" style="text;html=1;align=center;verticalAlign=middle;resizable=0;points=[];autosize=1;strokeColor=none;fillColor=none;" vertex="1" parent="1">
          <mxGeometry x="416.1" y="70" width="100" height="30" as="geometry" />
        </mxCell>
        <mxCell id="vGtt1iqXlC9HfNqBAAFR-23" value="port:80" style="text;html=1;align=center;verticalAlign=middle;resizable=0;points=[];autosize=1;strokeColor=none;fillColor=none;" vertex="1" parent="1">
          <mxGeometry x="325" y="140" width="60" height="30" as="geometry" />
        </mxCell>
        <mxCell id="vGtt1iqXlC9HfNqBAAFR-25" style="edgeStyle=none;rounded=0;orthogonalLoop=1;jettySize=auto;html=1;exitX=1;exitY=0.5;exitDx=0;exitDy=0;" edge="1" parent="1" source="vGtt1iqXlC9HfNqBAAFR-24" target="vGtt1iqXlC9HfNqBAAFR-3">
          <mxGeometry relative="1" as="geometry" />
        </mxCell>
        <mxCell id="vGtt1iqXlC9HfNqBAAFR-24" value="" style="image;html=1;image=img/lib/clip_art/networking/Wireless_Router_128x128.png" vertex="1" parent="1">
          <mxGeometry x="225" y="153" width="60" height="60" as="geometry" />
        </mxCell>
        <mxCell id="vGtt1iqXlC9HfNqBAAFR-26" value="Home Router" style="text;html=1;align=center;verticalAlign=middle;resizable=0;points=[];autosize=1;strokeColor=none;fillColor=none;" vertex="1" parent="1">
          <mxGeometry x="210" y="213" width="90" height="30" as="geometry" />
        </mxCell>
        <mxCell id="vGtt1iqXlC9HfNqBAAFR-36" style="edgeStyle=none;rounded=0;orthogonalLoop=1;jettySize=auto;html=1;exitX=1;exitY=0.5;exitDx=0;exitDy=0;startArrow=classic;startFill=1;" edge="1" parent="1" source="vGtt1iqXlC9HfNqBAAFR-28" target="vGtt1iqXlC9HfNqBAAFR-33">
          <mxGeometry relative="1" as="geometry" />
        </mxCell>
        <mxCell id="vGtt1iqXlC9HfNqBAAFR-37" style="edgeStyle=none;rounded=0;orthogonalLoop=1;jettySize=auto;html=1;exitX=1;exitY=0.5;exitDx=0;exitDy=0;entryX=0;entryY=0.5;entryDx=0;entryDy=0;" edge="1" parent="1" source="vGtt1iqXlC9HfNqBAAFR-28" target="vGtt1iqXlC9HfNqBAAFR-35">
          <mxGeometry relative="1" as="geometry" />
        </mxCell>
        <mxCell id="vGtt1iqXlC9HfNqBAAFR-28" value="" style="shape=image;verticalLabelPosition=bottom;labelBackgroundColor=default;verticalAlign=top;aspect=fixed;imageAspect=0;image=https://upload.wikimedia.org/wikipedia/commons/thumb/e/e9/Jenkins_logo.svg/1200px-Jenkins_logo.svg.png;" vertex="1" parent="1">
          <mxGeometry x="690" y="120" width="36.25" height="50" as="geometry" />
        </mxCell>
        <mxCell id="vGtt1iqXlC9HfNqBAAFR-29" value="" style="shape=image;verticalLabelPosition=bottom;labelBackgroundColor=default;verticalAlign=top;aspect=fixed;imageAspect=0;image=https://res.cloudinary.com/canonical/image/fetch/f_auto,q_auto,fl_sanitize,c_fill,w_200,h_200/https://api.charmhub.io/api/v1/media/download/charm_cMu7M9K6a65FsKZvrLZOZwyQradwbs7E_icon_5cef79c2d18f67464f39c8f2cf2d7ebb815b0071f04d3ffbb94f49fddd3ab666.png;" vertex="1" parent="1">
          <mxGeometry x="688.5" y="244.5" width="43" height="43" as="geometry" />
        </mxCell>
        <mxCell id="vGtt1iqXlC9HfNqBAAFR-32" value="" style="shape=image;verticalLabelPosition=bottom;labelBackgroundColor=default;verticalAlign=top;aspect=fixed;imageAspect=0;image=https://gitlab.developers.cam.ac.uk/uploads/-/system/project/avatar/4542/compose.png;" vertex="1" parent="1">
          <mxGeometry x="631.4" y="165" width="55.22" height="70" as="geometry" />
        </mxCell>
        <mxCell id="vGtt1iqXlC9HfNqBAAFR-33" value="" style="dashed=0;outlineConnect=0;html=1;align=center;labelPosition=center;verticalLabelPosition=bottom;verticalAlign=top;shape=mxgraph.weblogos.github" vertex="1" parent="1">
          <mxGeometry x="810" y="106" width="55" height="55" as="geometry" />
        </mxCell>
        <mxCell id="vGtt1iqXlC9HfNqBAAFR-35" value="" style="shape=image;verticalLabelPosition=bottom;labelBackgroundColor=default;verticalAlign=top;aspect=fixed;imageAspect=0;image=https://opennebula.io/wp-content/uploads/2020/05/DockerHub.png;" vertex="1" parent="1">
          <mxGeometry x="810" y="189.95" width="210" height="52.1" as="geometry" />
        </mxCell>
        <mxCell id="vGtt1iqXlC9HfNqBAAFR-40" style="edgeStyle=none;rounded=0;orthogonalLoop=1;jettySize=auto;html=1;exitX=0.5;exitY=0.5;exitDx=0;exitDy=0;exitPerimeter=0;entryX=0;entryY=0.5;entryDx=0;entryDy=0;entryPerimeter=0;" edge="1" parent="1" source="vGtt1iqXlC9HfNqBAAFR-38" target="vGtt1iqXlC9HfNqBAAFR-39">
          <mxGeometry relative="1" as="geometry" />
        </mxCell>
        <mxCell id="vGtt1iqXlC9HfNqBAAFR-38" value="Actor" style="shape=umlActor;verticalLabelPosition=bottom;verticalAlign=top;html=1;outlineConnect=0;" vertex="1" parent="1">
          <mxGeometry x="50" y="153" width="30" height="60" as="geometry" />
        </mxCell>
        <mxCell id="vGtt1iqXlC9HfNqBAAFR-41" style="edgeStyle=none;rounded=0;orthogonalLoop=1;jettySize=auto;html=1;exitX=1;exitY=0.5;exitDx=0;exitDy=0;exitPerimeter=0;entryX=0;entryY=0.5;entryDx=0;entryDy=0;" edge="1" parent="1" source="vGtt1iqXlC9HfNqBAAFR-39" target="vGtt1iqXlC9HfNqBAAFR-24">
          <mxGeometry relative="1" as="geometry" />
        </mxCell>
        <mxCell id="vGtt1iqXlC9HfNqBAAFR-39" value="" style="fillColor=#28A8E0;verticalLabelPosition=bottom;sketch=0;html=1;strokeColor=#ffffff;verticalAlign=top;align=center;points=[[0.145,0.145,0],[0.5,0,0],[0.855,0.145,0],[1,0.5,0],[0.855,0.855,0],[0.5,1,0],[0.145,0.855,0],[0,0.5,0]];pointerEvents=1;shape=mxgraph.cisco_safe.compositeIcon;bgIcon=ellipse;resIcon=mxgraph.cisco_safe.capability.dns;" vertex="1" parent="1">
          <mxGeometry x="130" y="161.5" width="43" height="43" as="geometry" />
        </mxCell>
        <mxCell id="vGtt1iqXlC9HfNqBAAFR-42" value="port:80" style="text;html=1;align=center;verticalAlign=middle;resizable=0;points=[];autosize=1;strokeColor=none;fillColor=none;" vertex="1" parent="1">
          <mxGeometry x="190" y="140" width="60" height="30" as="geometry" />
        </mxCell>
      </root>
    </mxGraphModel>
  </diagram>
</mxfile>
